<?xml version="1.0" encoding="UTF-8"?>
<svg id="Warstwa_1" xmlns="http://www.w3.org/2000/svg" version="1.1" viewBox="0 0 566.93 566.93">
  <!-- Generator: Adobe Illustrator 30.1.0, SVG Export Plug-In . SVG Version: 2.1.1 Build 65)  -->
  <defs>
    <style>
      .st0 {
        fill: #fff;
      }

      .st0, .st1 {
        display: none;
      }

      .st1 {
        fill: #1d1d1b;
      }
    </style>
  </defs>
  <g id="aW5iFu.tif">
    <g>
      <path class="st0" d="M476.99,142.14v255.59H87.92v-255.59h389.07ZM213.43,196.76h-83.23l-41.95,199.92h49.21l17.54-83.65,33.66.15,7.16-32.59c-2.76-2.13-6.39-2.72-9.11-4.91-3.04-2.45-5.26-6.94-7.46-8.9-1.45-1.29-4.61-1.73-5.79-4.05l-.42-.1c-5.25,4.06-8.64-2.16-13.77-2.15.31,2.1.71,4.36.67,6.49-.05,3.4-1.15,7.12-1.35,10.47-.2,3.53.42,7,.36,10.53-.04,2.36-.62,5.3-.69,7.67-.04,1.44-.21,4.36.01,5.62.27,1.53,2.42.43,3.79.53.52.04,2.44.48,2.74.78l1.34,4.04c-.31,1.6-.74,3.77-2.32,4.39-1.31.52-3.37.65-4.72.22-1.02-.33-.91-1.42-1.61-1.35-1.02.6-1.88,1.33-3.01,1.74-.83.3-1.92.2-2.5.5-.45.24-.61,1.04-1,1.39-1.27,1.12-4.42,1.13-5.74.16-.51-.38-1.86-3.64-1.86-4.35,0-.57,1.15-3.64,1.52-4.02,1.85-1.91,5.84.23,7.1-.15.94-.28,2.47-2.21,2.56-3.27.05-.62-.23-2.25-.34-2.98-.68-4.54-2.55-9.61-2.89-14.1-.38-5.13.67-11.07.34-16.47-.28-4.67-2.24-9.29-.99-14l-.34-.7c-1.38-.51-2.14-.96-3.63-.53.23-4.9-4.6-4.16-6.43-6.67-1.25-1.72-.59-3.08-.99-4.91-.22-1.01-1.03-1.8-1.16-2.99-.39-3.61,2.29-4.83,3.03-7.23.63-2.02.55-1.94,1.39-3.77.52-1.13-.01-3.1,1.75-3.43,2.35-.44,4.93,1.89,4.56,4.51l.33.3c5.15.77,9.9,3.95,10.56,9.84,1.7-2.83,4.65-2.75,6.89-3.9,3.82-1.94,8.86-7.67,13.53-10.17,1.45-.78,5.79-2.61,7.24-2.34,2.8.52,4.01,9.42,5.36,11.85l2.14,13.31,4.96.17c.5.1,1.61,4.18,2.3,3.33l11.23-54.27ZM267.26,196.76h-49.21l-41.95,199.92h24.77c-.48-1.53-.71-3.19-.94-4.78-.95-6.9-2.53-20.83-.21-27.07.67-1.8,3.25-4.97,3.45-6.16.35-2.07-1.31-3.18-1.31-5.23,0-2.4,1.7-5.44,1.68-7.71-.01-1.47-1.06-3.13-1.03-4.88.03-1.62.94-3.96,1.22-5.73.75-4.7,1.12-8.61,2.83-13.11,1.99-5.24,4.01-10.15,8.4-13.5,1.43-1.09,5.21-2.86,5.96-3.66.38-.4.64-1.62,1.19-2.24,2.59-2.88,6.12-4.93,8.98-7.49.34-.8-1.65-7.55-1.79-9.31-.24-3.15,1.35-9.76,2.02-13.18.79-4.08,7.76-7.57,11.36-7.92,3.46-.34,6.94.92,10.03,2.41l14.54-70.38ZM296.99,396.68h45.41l.49-.88c3.9-20.42,8.91-40.61,12.78-61.03,1.29-6.83,4.07-18,2.59-24.59-2.41-10.7-10.28-15.13-19.66-17.67,1.37-.78,3.34-.71,4.96-1.04,15.69-3.29,21.14-10.28,26.1-25.9,4.2-13.25,9.17-37.24,4.2-50.35-7.22-19.05-28.11-17.56-44.34-18.12-.64-.02-1.3-.4-1.97-.36h-52.5s-15.57,74.59-15.57,74.59c3.51,2.14,9.11,10.5,2.55,11.97l.64,7.24c.48.81,4.42-.21,5.41-.29,6.09-.5,12.51-1.4,18.5-1.75,6.97-.41,12.64.72,19.4,1.83.85.14,1.96,1.15,2.73.28,1.14-1.29-.16-2.44,3.29-2.49,1.5-.02,6.08.47,7.47.87.96.28,1.02,1.92,2.11,1.94.56.01,1.9-.92,2.98-1.04,3.47-.41,10.45.59,13.46,2.54,5.25,3.41,5.7,13.94.92,17.95-.75.63-3.74,2.81-4.51,3.27-1.77,1.05-4.64.6-6.23-.65-1.35-1.06-1.58-2.84-2.59-4.08-1.8-2.2-3.76-3.29-5.82-4.86-.58-.44-.72-1.32-1.41-1.66-2.5-1.24-8.18-.74-10.91-1.66-.41-.14-.24-.9-1.06-1.06-3.01-.6-8.05,1.15-11.25,1.4-3.11.24-6.48-.24-9.59,0-4.11.31-8.51,2.65-12.69,3.7-3.98,1-8.84,1.27-12.64,2.36-2.58.74-1.72,2.38-2.72,3.41-.5.51-1.46.28-2.29,1.07-5.92,5.57-6.35,14.4-8.95,21.68l-3.79,18.56c.88-1.04,4.01-3.53,4.46-4.57.31-.71-.09-1.34.05-2.03,1.09-5.62,8.38-11.22,8.39-16.69,0-3.13-1.42-5.52-.93-9.36.47-3.62,4.47-10.47,8.29-6.59,3.46-4.27,7.96-2.68,11.6.38,1.61,1.36,6.33,6.67,6.05,8.84-.12.91-1.63,4.44-2.12,5.47-1.57,3.28-6.83,9.48-9.54,11.93-1.03.94-2.81,1.47-3.44,2.7-.54,1.07.25,1.47.29,2.42.06,1.49-3.83,7.45-5.18,7.77-1.76.42-2.55-.24-3.94,1.79l-1.77-.51c-2.33,3.52-4.38,7.2-6.8,10.66s-5.2,7.18-7.74,10.35c-.62.78-1.34,1.61-2.25,1.99l-.06.44c.59,1.6,1.78,2.86,2.5,4.39,2.2,4.61,3.03,10.45,4.48,15.39h37.24s18.94-89.7,18.94-89.7l.73-.58c3.22.64,9.88.16,11.12,4.34.84,2.82.11,6.51-.07,9.42l-15.81,76.55ZM471.38,196.76h-82.24l-41.95,199.92h85.05l8.26-40.26h-35.5l8.92-43.41,30.73-.16,7.91-38.01h-30.39l7.97-37.77,32.61-.09,8.63-40.22ZM189.98,245.07c-.43-4.57-2.39-8.65-4.46-12.6l-2.66,2.43-2.79,3.69c2.93,2.69,5.55,6.88,9.9,6.48Z"/>
      <polygon points="469.67 149.13 461.04 189.35 428.43 189.44 420.46 227.21 450.85 227.21 442.94 265.22 412.21 265.38 403.29 308.79 438.79 308.79 430.54 349.06 345.49 349.06 387.43 149.13 469.67 149.13"/>
      <path d="M211.73,149.13l-11.23,54.27c-.7.84-1.81-3.23-2.3-3.33l-4.96-.17-2.14-13.31c-1.36-2.43-2.56-11.33-5.36-11.85-1.45-.27-5.79,1.56-7.24,2.34-4.67,2.5-9.71,8.22-13.53,10.17-2.24,1.14-5.19,1.07-6.89,3.9-.66-5.89-5.41-9.07-10.56-9.84l-.33-.3c.37-2.62-2.2-4.94-4.56-4.51-1.76.33-1.23,2.3-1.75,3.43-.84,1.83-.77,1.75-1.39,3.77-.74,2.4-3.42,3.62-3.03,7.23.13,1.19.94,1.98,1.16,2.99.39,1.82-.26,3.19.99,4.91,1.83,2.51,6.66,1.77,6.43,6.67,1.49-.43,2.25.02,3.63.53l.34.7c-1.25,4.71.71,9.33.99,14,.33,5.39-.72,11.34-.34,16.47.33,4.49,2.2,9.55,2.89,14.1.11.74.39,2.37.34,2.98-.09,1.06-1.62,2.99-2.56,3.27-1.26.38-5.25-1.76-7.1.15-.37.38-1.52,3.44-1.52,4.02,0,.71,1.35,3.97,1.86,4.35,1.31.97,4.46.95,5.74-.16.4-.35.56-1.15,1-1.39.58-.3,1.66-.2,2.5-.5,1.12-.41,1.99-1.14,3.01-1.74.7-.07.59,1.03,1.61,1.35,1.34.43,3.4.3,4.72-.22,1.58-.63,2.01-2.79,2.32-4.39l-1.34-4.04c-.3-.3-2.22-.74-2.74-.78-1.37-.1-3.52,1-3.79-.53-.22-1.25-.06-4.17-.01-5.62.07-2.37.64-5.32.69-7.67.07-3.53-.56-7.01-.36-10.53s1.3-7.08,1.35-10.47c.03-2.13-.36-4.39-.67-6.49,5.14-.01,8.52,6.21,13.77,2.15l.42.1c1.18,2.32,4.34,2.75,5.79,4.05,2.2,1.96,4.41,6.45,7.46,8.9,2.72,2.19,6.36,2.78,9.11,4.91l-7.16,32.59-33.66-.15-17.54,83.65h-49.21l41.95-199.92h83.23Z"/>
      <path d="M295.27,348.38l15.83-75.97c.18-2.92.9-6.62.07-9.44-1.24-4.18-7.9-3.71-11.13-4.35l-.73.58-18.96,90.17h-37.31c-1.45-4.93-2.28-10.78-4.48-15.4-.73-1.53-1.92-2.79-2.51-4.39l.06-.45c.92-.38,1.64-1.22,2.26-2,2.54-3.18,5.4-7.02,7.75-10.37s4.48-7.15,6.81-10.68l1.78.51c1.4-2.04,2.19-1.38,3.95-1.79,1.36-.32,5.25-6.29,5.19-7.78-.04-.96-.83-1.36-.29-2.43.63-1.24,2.41-1.77,3.44-2.71,2.71-2.46,7.98-8.67,9.55-11.95.49-1.02,2.01-4.56,2.13-5.47.28-2.18-4.45-7.49-6.06-8.85-3.64-3.07-8.15-4.66-11.62-.38-3.83-3.89-7.84,2.98-8.31,6.6-.5,3.85.94,6.25.93,9.38-.01,5.48-7.32,11.09-8.41,16.72-.13.69.26,1.32-.05,2.03-.45,1.04-3.59,3.53-4.47,4.57l3.8-18.6c2.6-7.29,3.03-16.13,8.96-21.71.84-.79,1.8-.56,2.3-1.07,1.01-1.03.14-2.68,2.73-3.42,3.8-1.09,8.67-1.36,12.66-2.37,4.19-1.05,8.6-3.4,12.71-3.71,3.11-.23,6.49.25,9.6,0,3.2-.25,8.25-2.01,11.27-1.41.82.16.65.92,1.06,1.06,2.74.91,8.42.41,10.93,1.66.69.34.83,1.22,1.41,1.66,2.07,1.57,4.03,2.66,5.83,4.87,1.01,1.24,1.24,3.03,2.59,4.09,1.6,1.25,4.47,1.71,6.24.65.77-.46,3.76-2.64,4.52-3.28,4.79-4.02,4.34-14.57-.92-17.98-3.01-1.96-10-2.95-13.48-2.54-1.08.13-2.42,1.06-2.99,1.04-1.08-.02-1.15-1.67-2.11-1.95-1.39-.4-5.97-.9-7.48-.88-3.46.05-2.15,1.2-3.29,2.49-.78.88-1.89-.14-2.74-.28-6.77-1.11-12.46-2.24-19.43-1.84-6,.35-12.42,1.26-18.53,1.75-.99.08-4.93,1.11-5.42.3l-.65-7.25c6.57-1.47.95-9.85-2.56-11.99l15.59-74.72h52.69c.67-.03,1.32.34,1.96.37,16.17.55,36.99-.93,44.19,18.05,4.95,13.06,0,36.97-4.19,50.17-4.93,15.57-10.37,22.54-26.01,25.81-1.61.34-3.58.27-4.94,1.04,9.35,2.53,17.19,6.94,19.59,17.61,1.48,6.56-1.29,17.69-2.58,24.5-3.85,20.35-8.85,40.47-12.73,60.82l-.49.87h-45.52ZM306.19,227.23h4.79c.46,0,3.15-.68,3.8-.87,2.96-.87,4.47-2.02,6.01-4.85,2.85-5.26,7.38-25.73,6.9-31.62-.56-6.92-7.47-6.78-12.57-6.82l-8.93,44.17Z"/>
      <path d="M265.56,149.13l-14.54,70.38c-3.09-1.49-6.57-2.74-10.03-2.41-3.6.35-10.56,3.84-11.36,7.92-.67,3.42-2.26,10.03-2.02,13.18.13,1.75,2.12,8.51,1.79,9.31-2.86,2.55-6.39,4.61-8.98,7.49-.55.61-.82,1.83-1.19,2.24-.75.8-4.53,2.57-5.96,3.66-4.39,3.35-6.42,8.25-8.4,13.5-1.7,4.5-2.08,8.41-2.83,13.11-.28,1.77-1.2,4.11-1.22,5.73-.03,1.74,1.02,3.41,1.03,4.88.02,2.27-1.68,5.31-1.68,7.71,0,2.05,1.65,3.16,1.31,5.23-.2,1.19-2.78,4.35-3.45,6.16-2.32,6.24-.74,20.17.21,27.07.22,1.6.46,3.25.94,4.78h-24.77l41.95-199.92h49.21Z"/>
      <path d="M188.28,197.45c-4.35.4-6.97-3.79-9.9-6.48l2.79-3.69,2.66-2.43c2.07,3.94,4.03,8.03,4.46,12.6Z"/>
      <path class="st0" d="M-73.25,266.79l8.92-44.11c5.1.04,12-.09,12.56,6.81.48,5.88-4.04,26.33-6.89,31.58-1.54,2.83-3.04,3.97-6,4.85-.66.19-3.34.87-3.8.87h-4.79Z"/>
    </g>
    <g>
      <path class="st0" d="M117.07,427.43v-86.14h344.89v86.22H117.07v-.09ZM189.66,409.86c-.55-.36-.62-1.29-.47-1.88l11.89-47.23c.26-1.02,1-1.82,1.73-2.13.92-.39,1.98-.46,2.78.12.51.36.66,1.24.5,1.88l-4.6,18.32c-.13.53.11,1.29.4,1.62.23.27.9.52,1.32.52h2.66c.4.01.96-.35,1.07-.82l5.05-20.36c.69-2.77-1.06-5.27-3.64-5.99-5.34-1.51-11.58.95-13.01,6.65l-12.08,48.12c-.7,2.77,1.14,5.29,3.62,6,5.34,1.53,11.6-.93,13.04-6.64l4.86-19.25c.04-.14-.07-.54-.19-.61-.09-.05-.38-.14-.49-.14h-2.43c-1.4,0-2.69.87-3.06,2.31l-4.48,17.65c-.49,1.93-2.8,2.93-4.48,1.83ZM249.31,404.11l-1.6,8.27c-.12,1.04.61,2.03,1.72,2.04l2.61.02c.57,0,1.15-.49,1.25-1.12l9.5-58.25c.04-.24-.05-.58-.18-.69-.1-.08-.44-.18-.58-.18h-4.7c-.42,0-.96.3-1.13.79l-19.87,58.38c-.5,1.47,2.1,1.1,3.3,1.04,1.11-.05,2.4-.88,2.74-1.98l2.61-8.35,4.33.02ZM311.02,414.42l2.75.03c.39,0,.95-.32,1.07-.81l14.73-58.52c.05-.2,0-.61-.09-.71s-.4-.19-.55-.2h-3.15c-1.23-.02-2.21.54-2.93,1.55-1.21,1.67-1.99,3.49-2.78,5.47l-13.4,37.46,5.46-37.39c.28-1.9.24-3.63-.12-5.4-.32-.99-1-1.67-2.08-1.68l-3.12-.02c-.52,0-1.01.32-1.16.91l-14.73,58.49c-.06.23.02.58.15.67.1.08.45.19.59.19l2.42-.02c1.47-.01,2.6-.9,3-2.33l8.88-39.7-5.75,40.11c-.11.79.65,1.46,1.3,1.69,1.74.61,3.69-.1,4.64-1.67l14.12-39.29-10.86,39.05c-.32,1.14.5,2.1,1.61,2.11ZM365.79,391.86c1.74,0,3.14.05,4.63-.17,3.95-.58,7.01-3.28,7.98-7.14l5.95-23.78c.45-1.81-.15-3.74-1.42-4.9-1.18-1.08-2.77-1.62-4.38-1.63l-8.12-.04c-.54,0-1.02.31-1.17.91l-14.73,58.49c-.06.23.02.58.15.67.1.08.45.19.59.18l2.63-.03c1.19-.02,2.44-.92,2.75-2.18l5.15-20.38Z"/>
      <path d="M355.72,414.44c-1.11-.01-1.93-.97-1.61-2.11l10.86-39.05-14.12,39.29c-.95,1.57-2.9,2.28-4.64,1.67-.66-.23-1.42-.9-1.3-1.69l5.75-40.11-8.88,39.7c-.4,1.43-1.53,2.31-3,2.33l-2.42.02c-.14,0-.49-.11-.59-.19-.13-.1-.21-.44-.15-.67l14.73-58.49c.15-.59.64-.91,1.16-.91l3.12.02c1.08,0,1.76.69,2.08,1.68.35,1.77.4,3.49.12,5.4l-5.46,37.39,13.4-37.46c.79-1.98,1.58-3.8,2.78-5.47.72-1,1.7-1.57,2.93-1.56h3.15c.15.01.45.11.55.21s.14.51.09.71l-14.73,58.52c-.12.49-.68.82-1.07.81l-2.75-.03Z"/>
      <path d="M234.36,409.89c1.68,1.09,3.99.1,4.48-1.83l4.48-17.65c.36-1.43,1.66-2.31,3.06-2.31h2.43c.11,0,.4.09.49.14.12.07.23.46.19.61l-4.86,19.25c-1.44,5.71-7.7,8.17-13.04,6.64-2.48-.71-4.32-3.23-3.62-6l12.08-48.12c1.43-5.71,7.67-8.16,13.01-6.65,2.57.73,4.32,3.22,3.64,5.99l-5.05,20.36c-.11.46-.67.83-1.07.83h-2.66c-.42-.01-1.08-.27-1.32-.53-.29-.33-.53-1.1-.4-1.62l4.6-18.32c.16-.65.01-1.52-.5-1.88-.81-.57-1.86-.51-2.78-.12-.73.31-1.47,1.11-1.73,2.13l-11.89,47.23c-.15.59-.08,1.52.47,1.88Z"/>
      <path d="M294.01,404.13l-4.33-.02-2.61,8.35c-.34,1.1-1.63,1.93-2.74,1.98-1.2.06-3.8.42-3.3-1.04l19.87-58.38c.17-.49.7-.79,1.13-.79h4.7c.14,0,.48.1.58.18.12.1.22.45.18.69l-9.5,58.25c-.1.64-.68,1.13-1.25,1.12l-2.61-.02c-1.11,0-1.84-1-1.72-2.04l1.6-8.27ZM294.97,399.22l5.69-30.25-9.5,30.27,3.81-.02Z"/>
      <path d="M410.48,391.88l-5.15,20.38c-.32,1.26-1.56,2.16-2.75,2.18l-2.63.03c-.14,0-.49-.11-.59-.18-.13-.1-.2-.44-.15-.67l14.73-58.49c.15-.6.63-.91,1.17-.91l8.12.04c1.61,0,3.2.55,4.38,1.63,1.28,1.16,1.88,3.09,1.42,4.9l-5.95,23.78c-.97,3.86-4.03,6.56-7.98,7.14-1.49.22-2.9.17-4.63.17ZM417.24,384.74l5.95-23.65c.27-1.07-.6-2.02-1.52-2.02h-2.94s-7.02,27.92-7.02,27.92l2.23.08c1.43.05,2.89-.69,3.3-2.33Z"/>
      <polygon class="st0" points="250.27 399.2 246.46 399.22 255.96 368.95 250.27 399.2"/>
      <path class="st0" d="M372.55,384.72c-.41,1.63-1.87,2.38-3.3,2.33l-2.23-.08,7.02-27.9h2.94c.92-.02,1.79.93,1.52,2l-5.95,23.65Z"/>
    </g>
    <path class="st1" d="M586.23,302.87"/>
    <path class="st1" d="M664.42,351.68"/>
  </g>
</svg>